<svg width="60" height="60" viewBox="0 0 60 60" fill="none" xmlns="http://www.w3.org/2000/svg">
<circle cx="30" cy="30" r="29" stroke="#17D844" stroke-width="2"/>
<circle cx="17" cy="21" r="5" fill="#17D844"/>
<circle cx="44" cy="21" r="5" fill="#17D844"/>
<path d="M30.2045 39.196C32.8892 39.196 35.3572 39.544 37.6087 40.2401C39.8672 40.9432 41.9446 41.9446 43.8409 43.2443V45.4602C43.1378 44.9489 42.2713 44.4695 41.2415 44.022C40.2188 43.5817 39.093 43.1946 37.8643 42.8608C36.6428 42.527 35.3786 42.2642 34.0717 42.0724C32.7649 41.8878 31.4759 41.7955 30.2045 41.7955C28.5142 41.7955 26.799 41.9588 25.0589 42.2855C23.3189 42.6122 21.7031 43.0526 20.2116 43.6065C18.7202 44.1605 17.5057 44.7784 16.5682 45.4602V43.2443C18.4645 41.9446 20.5384 40.9432 22.7898 40.2401C25.0483 39.544 27.5199 39.196 30.2045 39.196Z" fill="#17D844"/>
</svg>
